<?xml version="1.0" standalone="no"?>
<!DOCTYPE svg PUBLIC "-//W3C//DTD SVG 20010904//EN"
 "http://www.w3.org/TR/2001/REC-SVG-20010904/DTD/svg10.dtd">
<svg version="1.0" xmlns="http://www.w3.org/2000/svg"
 width="545.000000pt" height="540.000000pt" viewBox="0 0 545.000000 540.000000"
 preserveAspectRatio="xMidYMid meet">

<g transform="translate(0.000000,540.000000) scale(0.100000,-0.100000)"
fill="#000000" stroke="none">
<path d="M1389 4799 c-18 -18 -20 -29 -15 -68 44 -307 76 -779 76 -1113 0
-141 4 -229 10 -233 17 -10 11 -37 -7 -33 -11 2 -27 34 -48 98 -72 211 -221
530 -343 731 -93 153 -314 489 -341 516 -11 12 -21 25 -21 28 0 19 -59 54 -92
55 -66 0 -72 -14 -64 -175 3 -77 10 -171 16 -210 12 -89 12 -416 0 -705 -5
-124 -12 -318 -16 -431 l-7 -207 25 -16 c32 -21 73 -13 93 18 29 43 44 211 57
606 15 450 16 597 6 693 -9 84 3 87 52 14 193 -294 308 -501 408 -742 64 -155
156 -389 172 -440 16 -50 48 -115 68 -137 19 -22 80 -24 110 -3 12 9 28 38 36
68 33 117 40 212 40 577 0 302 -4 400 -22 570 -11 113 -26 268 -32 345 -12
142 -25 186 -59 205 -32 17 -79 12 -102 -11z"/>
<path d="M3745 4663 c-11 -2 -37 -9 -58 -14 -52 -14 -104 -63 -117 -111 -14
-49 0 -252 35 -533 13 -110 27 -234 30 -275 3 -41 14 -157 25 -257 11 -100 20
-223 20 -273 0 -88 1 -93 29 -121 38 -37 82 -39 116 -4 30 29 32 77 11 277
-22 205 -28 310 -18 304 22 -13 137 -185 238 -355 131 -221 148 -241 201 -241
79 0 93 57 40 155 -80 146 -259 428 -325 512 -40 51 -72 97 -72 102 0 4 18 11
41 15 142 23 248 148 257 306 13 234 -179 494 -378 513 -30 3 -64 3 -75 0z
m170 -233 c107 -106 149 -237 107 -333 -29 -66 -80 -94 -200 -111 -61 -9 -55
-34 -89 406 -7 99 1 112 70 105 44 -4 55 -10 112 -67z"/>
<path d="M2180 4109 c-115 -17 -267 -105 -323 -187 -93 -134 -121 -342 -70
-515 41 -142 146 -266 273 -325 69 -32 83 -35 165 -35 157 1 367 70 394 129
17 38 13 68 -12 92 -30 29 -72 28 -138 -3 -124 -56 -268 -71 -344 -36 -68 32
-142 117 -170 197 -14 38 -25 86 -25 106 l0 37 58 6 c114 12 270 55 369 101
107 51 193 157 193 238 0 70 -60 150 -135 182 -43 18 -159 24 -235 13z m184
-172 c27 -20 16 -47 -31 -83 -55 -42 -134 -71 -256 -96 -141 -28 -158 -16 -85
67 49 56 98 88 164 109 62 19 184 21 208 3z"/>
<path d="M2753 3988 c-11 -13 -23 -30 -26 -40 -12 -35 12 -546 29 -615 54
-219 152 -304 298 -261 70 21 184 141 210 221 3 10 11 17 17 15 7 -2 11 -44
12 -111 2 -95 4 -109 24 -128 27 -27 77 -28 112 -1 l26 19 -3 329 c-2 181 -8
374 -13 429 -12 121 -27 149 -85 153 -69 5 -81 -17 -115 -224 -33 -204 -56
-288 -106 -391 -36 -74 -122 -168 -146 -160 -22 7 -57 84 -73 159 -10 49 -17
158 -21 328 -5 240 -6 256 -26 278 -14 15 -32 22 -57 22 -25 0 -43 -7 -57 -22z"/>
<path d="M4510 3854 c-91 -42 -140 -104 -170 -214 -14 -48 -16 -186 -4 -254
13 -82 66 -199 110 -246 76 -81 233 -115 329 -71 148 68 238 328 181 526 -36
123 -100 203 -201 252 -90 43 -163 45 -245 7z m174 -158 c42 -17 91 -77 111
-135 40 -119 -7 -298 -88 -332 -15 -6 -43 -9 -61 -6 -82 13 -130 80 -148 205
-29 209 51 324 186 268z"/>
<path d="M1522 2594 c-13 -9 -27 -26 -31 -38 -5 -11 -14 -136 -21 -277 l-13
-257 -36 -6 c-20 -3 -61 -6 -92 -6 -114 0 -176 -11 -203 -37 -32 -29 -34 -75
-6 -103 18 -18 33 -20 170 -20 112 0 152 -3 155 -12 2 -7 6 -191 9 -408 l5
-395 30 -27 c37 -33 46 -34 87 -9 23 14 33 30 39 58 4 21 6 203 4 405 -3 237
0 370 6 376 6 5 42 6 85 1 41 -4 115 -8 163 -8 80 -1 90 1 112 24 33 32 32 70
-3 104 -26 26 -33 28 -157 34 -72 4 -148 10 -169 14 l-39 6 7 111 c3 61 9 184
13 272 l6 162 -26 26 c-30 30 -62 33 -95 10z"/>
<path d="M2744 2161 c-37 -22 -64 -58 -64 -83 0 -9 14 -34 32 -54 28 -32 35
-35 67 -30 118 20 139 19 193 -7 69 -34 121 -78 159 -133 36 -53 84 -178 94
-247 l7 -47 -84 0 c-239 0 -386 -109 -396 -295 -3 -64 -1 -76 30 -135 26 -50
44 -71 82 -95 48 -29 52 -30 180 -30 72 0 152 4 179 9 39 7 47 6 47 -7 0 -29
50 -77 80 -77 92 0 118 116 85 385 -38 317 -61 418 -126 553 -68 141 -207 261
-344 297 -84 21 -182 20 -221 -4z m490 -775 c33 -14 34 -16 41 -91 4 -42 4
-80 -1 -85 -5 -4 -37 -17 -72 -29 -87 -29 -218 -30 -256 0 -22 17 -26 28 -26
70 0 28 5 59 10 70 33 60 220 100 304 65z"/>
<path d="M3592 1878 c-12 -6 -25 -22 -29 -36 -9 -39 4 -234 37 -517 16 -143
30 -263 30 -267 0 -20 43 -48 73 -48 59 0 77 33 106 202 40 238 114 365 165
286 34 -53 96 -323 96 -417 0 -75 94 -112 140 -53 20 24 22 35 17 117 -7 116
-65 346 -106 417 -35 62 -74 102 -114 117 -72 28 -162 -1 -222 -72 -19 -22
-37 -38 -40 -35 -3 3 -10 54 -16 114 -15 146 -16 152 -44 180 -26 26 -56 29
-93 12z"/>
<path d="M2072 1777 c-30 -32 -28 -80 7 -186 34 -100 150 -349 216 -461 25
-42 45 -85 45 -95 0 -33 -87 -199 -130 -247 -29 -34 -67 -61 -127 -90 l-86
-43 -136 0 c-127 1 -142 3 -226 33 -49 18 -102 32 -117 32 -38 0 -68 -32 -68
-74 0 -62 51 -93 240 -142 96 -25 244 -23 350 5 258 68 403 245 494 606 35
135 72 354 83 488 6 76 5 79 -22 107 -33 35 -72 39 -105 12 -20 -16 -25 -37
-41 -158 -23 -188 -39 -274 -50 -274 -5 0 -35 53 -65 118 -83 173 -93 198
-110 275 -10 45 -25 79 -40 94 -31 31 -83 31 -112 0z"/>
</g>
</svg>
